<mxfile host="app.diagrams.net" modified="2023-04-28T19:37:22.236Z" agent="Mozilla/5.0 (Windows NT 10.0; Win64; x64) AppleWebKit/537.36 (KHTML, like Gecko) Chrome/112.0.0.0 Safari/537.36" etag="jUtVz82eAf7CMG-2KPbe" version="21.2.3" type="device" pages="7">
  <diagram name="Page-1" id="AYAIvCEbdhQmRyx_nJkV">
    <mxGraphModel dx="2996" dy="721" grid="1" gridSize="10" guides="1" tooltips="1" connect="1" arrows="1" fold="1" page="1" pageScale="1" pageWidth="850" pageHeight="1100" math="0" shadow="0">
      <root>
        <mxCell id="0" />
        <mxCell id="1" parent="0" />
        <mxCell id="m44uz_PLttphs2vmdU6A-26" style="edgeStyle=orthogonalEdgeStyle;rounded=0;orthogonalLoop=1;jettySize=auto;html=1;entryX=0.5;entryY=0;entryDx=0;entryDy=0;" edge="1" parent="1" source="m44uz_PLttphs2vmdU6A-1" target="m44uz_PLttphs2vmdU6A-25">
          <mxGeometry relative="1" as="geometry" />
        </mxCell>
        <mxCell id="m44uz_PLttphs2vmdU6A-1" value="&lt;font style=&quot;font-size: 20px;&quot;&gt;Customer&lt;/font&gt;" style="rounded=0;whiteSpace=wrap;html=1;" vertex="1" parent="1">
          <mxGeometry x="345" y="430" width="120" height="60" as="geometry" />
        </mxCell>
        <mxCell id="m44uz_PLttphs2vmdU6A-3" value="&lt;font style=&quot;font-size: 14px;&quot;&gt;String&lt;br&gt;customerId&lt;/font&gt;" style="ellipse;whiteSpace=wrap;html=1;" vertex="1" parent="1">
          <mxGeometry x="70" y="280" width="110" height="60" as="geometry" />
        </mxCell>
        <mxCell id="m44uz_PLttphs2vmdU6A-4" value="&lt;font style=&quot;font-size: 14px;&quot;&gt;String&lt;br&gt;firstName&lt;/font&gt;" style="ellipse;whiteSpace=wrap;html=1;" vertex="1" parent="1">
          <mxGeometry x="140" y="220" width="110" height="60" as="geometry" />
        </mxCell>
        <mxCell id="m44uz_PLttphs2vmdU6A-5" value="&lt;font style=&quot;font-size: 16px;&quot;&gt;String&lt;br&gt;lastName&lt;/font&gt;" style="ellipse;whiteSpace=wrap;html=1;" vertex="1" parent="1">
          <mxGeometry x="350" y="150" width="110" height="60" as="geometry" />
        </mxCell>
        <mxCell id="m44uz_PLttphs2vmdU6A-6" value="&lt;font style=&quot;font-size: 16px;&quot;&gt;String&lt;br&gt;middleName&lt;br&gt;&lt;/font&gt;" style="ellipse;whiteSpace=wrap;html=1;" vertex="1" parent="1">
          <mxGeometry x="240" y="180" width="110" height="60" as="geometry" />
        </mxCell>
        <mxCell id="m44uz_PLttphs2vmdU6A-7" value="&lt;font style=&quot;font-size: 16px;&quot;&gt;String&lt;br&gt;email&lt;br&gt;&lt;/font&gt;" style="ellipse;whiteSpace=wrap;html=1;" vertex="1" parent="1">
          <mxGeometry x="460" y="180" width="110" height="60" as="geometry" />
        </mxCell>
        <mxCell id="m44uz_PLttphs2vmdU6A-8" value="&lt;font style=&quot;font-size: 16px;&quot;&gt;String&lt;br&gt;mobileNumber&lt;br&gt;&lt;/font&gt;" style="ellipse;whiteSpace=wrap;html=1;" vertex="1" parent="1">
          <mxGeometry x="570" y="210" width="130" height="80" as="geometry" />
        </mxCell>
        <mxCell id="m44uz_PLttphs2vmdU6A-9" value="&lt;span style=&quot;font-size: 16px;&quot;&gt;Enum&lt;br&gt;Gender&lt;br&gt;&lt;/span&gt;" style="ellipse;whiteSpace=wrap;html=1;" vertex="1" parent="1">
          <mxGeometry x="660" y="290" width="110" height="60" as="geometry" />
        </mxCell>
        <mxCell id="m44uz_PLttphs2vmdU6A-11" value="" style="endArrow=classic;html=1;rounded=0;exitX=0.5;exitY=0;exitDx=0;exitDy=0;entryX=1;entryY=1;entryDx=0;entryDy=0;" edge="1" parent="1" source="m44uz_PLttphs2vmdU6A-1" target="m44uz_PLttphs2vmdU6A-3">
          <mxGeometry width="50" height="50" relative="1" as="geometry">
            <mxPoint x="270" y="360" as="sourcePoint" />
            <mxPoint x="320" y="310" as="targetPoint" />
          </mxGeometry>
        </mxCell>
        <mxCell id="m44uz_PLttphs2vmdU6A-12" value="" style="endArrow=classic;html=1;rounded=0;exitX=0.5;exitY=0;exitDx=0;exitDy=0;entryX=1;entryY=1;entryDx=0;entryDy=0;" edge="1" parent="1" source="m44uz_PLttphs2vmdU6A-1" target="m44uz_PLttphs2vmdU6A-4">
          <mxGeometry width="50" height="50" relative="1" as="geometry">
            <mxPoint x="270" y="360" as="sourcePoint" />
            <mxPoint x="320" y="310" as="targetPoint" />
          </mxGeometry>
        </mxCell>
        <mxCell id="m44uz_PLttphs2vmdU6A-13" value="" style="endArrow=classic;html=1;rounded=0;exitX=0.5;exitY=0;exitDx=0;exitDy=0;entryX=0.673;entryY=1.03;entryDx=0;entryDy=0;entryPerimeter=0;" edge="1" parent="1" source="m44uz_PLttphs2vmdU6A-1" target="m44uz_PLttphs2vmdU6A-6">
          <mxGeometry width="50" height="50" relative="1" as="geometry">
            <mxPoint x="270" y="360" as="sourcePoint" />
            <mxPoint x="320" y="310" as="targetPoint" />
          </mxGeometry>
        </mxCell>
        <mxCell id="m44uz_PLttphs2vmdU6A-14" value="" style="endArrow=classic;html=1;rounded=0;exitX=0.5;exitY=0;exitDx=0;exitDy=0;entryX=0.5;entryY=1;entryDx=0;entryDy=0;" edge="1" parent="1" source="m44uz_PLttphs2vmdU6A-1" target="m44uz_PLttphs2vmdU6A-5">
          <mxGeometry width="50" height="50" relative="1" as="geometry">
            <mxPoint x="270" y="360" as="sourcePoint" />
            <mxPoint x="320" y="310" as="targetPoint" />
          </mxGeometry>
        </mxCell>
        <mxCell id="m44uz_PLttphs2vmdU6A-15" value="" style="endArrow=classic;html=1;rounded=0;exitX=0.5;exitY=0;exitDx=0;exitDy=0;entryX=0.5;entryY=1;entryDx=0;entryDy=0;" edge="1" parent="1" source="m44uz_PLttphs2vmdU6A-1" target="m44uz_PLttphs2vmdU6A-7">
          <mxGeometry width="50" height="50" relative="1" as="geometry">
            <mxPoint x="270" y="360" as="sourcePoint" />
            <mxPoint x="320" y="310" as="targetPoint" />
          </mxGeometry>
        </mxCell>
        <mxCell id="m44uz_PLttphs2vmdU6A-16" value="" style="endArrow=classic;html=1;rounded=0;exitX=0.5;exitY=0;exitDx=0;exitDy=0;entryX=0;entryY=1;entryDx=0;entryDy=0;" edge="1" parent="1" source="m44uz_PLttphs2vmdU6A-1" target="m44uz_PLttphs2vmdU6A-8">
          <mxGeometry width="50" height="50" relative="1" as="geometry">
            <mxPoint x="270" y="360" as="sourcePoint" />
            <mxPoint x="320" y="310" as="targetPoint" />
          </mxGeometry>
        </mxCell>
        <mxCell id="m44uz_PLttphs2vmdU6A-17" value="" style="endArrow=classic;html=1;rounded=0;exitX=0.5;exitY=0;exitDx=0;exitDy=0;entryX=0;entryY=1;entryDx=0;entryDy=0;" edge="1" parent="1" source="m44uz_PLttphs2vmdU6A-1" target="m44uz_PLttphs2vmdU6A-9">
          <mxGeometry width="50" height="50" relative="1" as="geometry">
            <mxPoint x="270" y="360" as="sourcePoint" />
            <mxPoint x="320" y="310" as="targetPoint" />
          </mxGeometry>
        </mxCell>
        <mxCell id="m44uz_PLttphs2vmdU6A-19" value="&lt;span style=&quot;font-size: 16px;&quot;&gt;String&lt;br&gt;MALE&lt;br&gt;&lt;/span&gt;" style="ellipse;whiteSpace=wrap;html=1;" vertex="1" parent="1">
          <mxGeometry x="800" y="190" width="110" height="60" as="geometry" />
        </mxCell>
        <mxCell id="m44uz_PLttphs2vmdU6A-20" value="&lt;span style=&quot;font-size: 16px;&quot;&gt;String&lt;br&gt;FEMALE&lt;br&gt;&lt;/span&gt;" style="ellipse;whiteSpace=wrap;html=1;" vertex="1" parent="1">
          <mxGeometry x="840" y="270" width="110" height="60" as="geometry" />
        </mxCell>
        <mxCell id="m44uz_PLttphs2vmdU6A-21" value="&lt;span style=&quot;font-size: 16px;&quot;&gt;String&lt;br&gt;OTHERS&lt;br&gt;&lt;/span&gt;" style="ellipse;whiteSpace=wrap;html=1;" vertex="1" parent="1">
          <mxGeometry x="800" y="360" width="110" height="60" as="geometry" />
        </mxCell>
        <mxCell id="m44uz_PLttphs2vmdU6A-22" value="" style="endArrow=classic;html=1;rounded=0;exitX=1;exitY=0.5;exitDx=0;exitDy=0;entryX=0;entryY=1;entryDx=0;entryDy=0;" edge="1" parent="1" source="m44uz_PLttphs2vmdU6A-9" target="m44uz_PLttphs2vmdU6A-19">
          <mxGeometry width="50" height="50" relative="1" as="geometry">
            <mxPoint x="690" y="430" as="sourcePoint" />
            <mxPoint x="740" y="380" as="targetPoint" />
          </mxGeometry>
        </mxCell>
        <mxCell id="m44uz_PLttphs2vmdU6A-23" value="" style="endArrow=classic;html=1;rounded=0;exitX=1;exitY=0.5;exitDx=0;exitDy=0;entryX=0;entryY=0.5;entryDx=0;entryDy=0;" edge="1" parent="1" source="m44uz_PLttphs2vmdU6A-9" target="m44uz_PLttphs2vmdU6A-20">
          <mxGeometry width="50" height="50" relative="1" as="geometry">
            <mxPoint x="690" y="430" as="sourcePoint" />
            <mxPoint x="740" y="380" as="targetPoint" />
          </mxGeometry>
        </mxCell>
        <mxCell id="m44uz_PLttphs2vmdU6A-24" value="" style="endArrow=classic;html=1;rounded=0;exitX=1;exitY=0.5;exitDx=0;exitDy=0;entryX=0;entryY=0;entryDx=0;entryDy=0;" edge="1" parent="1" source="m44uz_PLttphs2vmdU6A-9" target="m44uz_PLttphs2vmdU6A-21">
          <mxGeometry width="50" height="50" relative="1" as="geometry">
            <mxPoint x="690" y="430" as="sourcePoint" />
            <mxPoint x="740" y="380" as="targetPoint" />
          </mxGeometry>
        </mxCell>
        <mxCell id="m44uz_PLttphs2vmdU6A-25" value="" style="rhombus;whiteSpace=wrap;html=1;" vertex="1" parent="1">
          <mxGeometry x="365" y="660" width="80" height="90" as="geometry" />
        </mxCell>
        <mxCell id="m44uz_PLttphs2vmdU6A-42" style="edgeStyle=orthogonalEdgeStyle;rounded=0;orthogonalLoop=1;jettySize=auto;html=1;entryX=0.5;entryY=1;entryDx=0;entryDy=0;" edge="1" parent="1" source="m44uz_PLttphs2vmdU6A-27" target="m44uz_PLttphs2vmdU6A-25">
          <mxGeometry relative="1" as="geometry" />
        </mxCell>
        <mxCell id="m44uz_PLttphs2vmdU6A-85" style="edgeStyle=orthogonalEdgeStyle;rounded=0;orthogonalLoop=1;jettySize=auto;html=1;entryX=0.5;entryY=0;entryDx=0;entryDy=0;" edge="1" parent="1" source="m44uz_PLttphs2vmdU6A-27" target="m44uz_PLttphs2vmdU6A-84">
          <mxGeometry relative="1" as="geometry" />
        </mxCell>
        <mxCell id="m44uz_PLttphs2vmdU6A-27" value="&lt;font style=&quot;font-size: 20px;&quot;&gt;Connection&lt;/font&gt;" style="rounded=0;whiteSpace=wrap;html=1;" vertex="1" parent="1">
          <mxGeometry x="-145" y="1000" width="120" height="60" as="geometry" />
        </mxCell>
        <mxCell id="m44uz_PLttphs2vmdU6A-28" value="&lt;span style=&quot;font-size: 14px;&quot;&gt;String&lt;br&gt;&lt;/span&gt;connectionId" style="ellipse;whiteSpace=wrap;html=1;" vertex="1" parent="1">
          <mxGeometry x="-450" y="878" width="110" height="60" as="geometry" />
        </mxCell>
        <mxCell id="m44uz_PLttphs2vmdU6A-29" value="&lt;span style=&quot;font-size: 14px;&quot;&gt;Long&lt;br&gt;&lt;/span&gt;consumerNo" style="ellipse;whiteSpace=wrap;html=1;" vertex="1" parent="1">
          <mxGeometry x="-390" y="818" width="110" height="60" as="geometry" />
        </mxCell>
        <mxCell id="m44uz_PLttphs2vmdU6A-30" value="&lt;font style=&quot;font-size: 14px;&quot;&gt;LocalDate&lt;br&gt;connDate&lt;/font&gt;" style="ellipse;whiteSpace=wrap;html=1;" vertex="1" parent="1">
          <mxGeometry x="-210" y="730" width="110" height="60" as="geometry" />
        </mxCell>
        <mxCell id="m44uz_PLttphs2vmdU6A-31" value="&lt;font style=&quot;font-size: 14px;&quot;&gt;LocalDate&lt;br&gt;appliedDate&lt;br&gt;&lt;/font&gt;" style="ellipse;whiteSpace=wrap;html=1;" vertex="1" parent="1">
          <mxGeometry x="-310" y="770" width="110" height="60" as="geometry" />
        </mxCell>
        <mxCell id="m44uz_PLttphs2vmdU6A-32" value="&lt;font style=&quot;font-size: 14px;&quot;&gt;Boolean&lt;br&gt;connStatus&lt;br&gt;&lt;/font&gt;" style="ellipse;whiteSpace=wrap;html=1;" vertex="1" parent="1">
          <mxGeometry x="-90" y="730" width="110" height="60" as="geometry" />
        </mxCell>
        <mxCell id="m44uz_PLttphs2vmdU6A-33" value="&lt;font style=&quot;font-size: 16px;&quot;&gt;Entity&lt;br&gt;Address&lt;br&gt;&lt;/font&gt;" style="ellipse;whiteSpace=wrap;html=1;fillColor=#ffe6cc;strokeColor=#d79b00;" vertex="1" parent="1">
          <mxGeometry x="90" y="783" width="130" height="80" as="geometry" />
        </mxCell>
        <mxCell id="m44uz_PLttphs2vmdU6A-34" value="&lt;span style=&quot;font-size: 16px;&quot;&gt;Entity&lt;br&gt;Customer&lt;br&gt;&lt;/span&gt;" style="ellipse;whiteSpace=wrap;html=1;fillColor=#e1d5e7;strokeColor=#9673a6;" vertex="1" parent="1">
          <mxGeometry x="170" y="860" width="110" height="60" as="geometry" />
        </mxCell>
        <mxCell id="m44uz_PLttphs2vmdU6A-35" value="" style="endArrow=classic;html=1;rounded=0;exitX=0.5;exitY=0;exitDx=0;exitDy=0;entryX=1;entryY=1;entryDx=0;entryDy=0;" edge="1" parent="1" source="m44uz_PLttphs2vmdU6A-27" target="m44uz_PLttphs2vmdU6A-28">
          <mxGeometry width="50" height="50" relative="1" as="geometry">
            <mxPoint x="-220" y="930" as="sourcePoint" />
            <mxPoint x="-170" y="880" as="targetPoint" />
          </mxGeometry>
        </mxCell>
        <mxCell id="m44uz_PLttphs2vmdU6A-36" value="" style="endArrow=classic;html=1;rounded=0;exitX=0.5;exitY=0;exitDx=0;exitDy=0;entryX=1;entryY=1;entryDx=0;entryDy=0;" edge="1" parent="1" source="m44uz_PLttphs2vmdU6A-27" target="m44uz_PLttphs2vmdU6A-29">
          <mxGeometry width="50" height="50" relative="1" as="geometry">
            <mxPoint x="-220" y="930" as="sourcePoint" />
            <mxPoint x="-170" y="880" as="targetPoint" />
          </mxGeometry>
        </mxCell>
        <mxCell id="m44uz_PLttphs2vmdU6A-37" value="" style="endArrow=classic;html=1;rounded=0;exitX=0.5;exitY=0;exitDx=0;exitDy=0;entryX=0.673;entryY=1.03;entryDx=0;entryDy=0;entryPerimeter=0;" edge="1" parent="1" source="m44uz_PLttphs2vmdU6A-27" target="m44uz_PLttphs2vmdU6A-31">
          <mxGeometry width="50" height="50" relative="1" as="geometry">
            <mxPoint x="-220" y="930" as="sourcePoint" />
            <mxPoint x="-170" y="880" as="targetPoint" />
          </mxGeometry>
        </mxCell>
        <mxCell id="m44uz_PLttphs2vmdU6A-38" value="" style="endArrow=classic;html=1;rounded=0;exitX=0.5;exitY=0;exitDx=0;exitDy=0;entryX=0.5;entryY=1;entryDx=0;entryDy=0;" edge="1" parent="1" source="m44uz_PLttphs2vmdU6A-27" target="m44uz_PLttphs2vmdU6A-30">
          <mxGeometry width="50" height="50" relative="1" as="geometry">
            <mxPoint x="-220" y="930" as="sourcePoint" />
            <mxPoint x="-170" y="880" as="targetPoint" />
          </mxGeometry>
        </mxCell>
        <mxCell id="m44uz_PLttphs2vmdU6A-39" value="" style="endArrow=classic;html=1;rounded=0;exitX=0.5;exitY=0;exitDx=0;exitDy=0;entryX=0.5;entryY=1;entryDx=0;entryDy=0;" edge="1" parent="1" source="m44uz_PLttphs2vmdU6A-27" target="m44uz_PLttphs2vmdU6A-32">
          <mxGeometry width="50" height="50" relative="1" as="geometry">
            <mxPoint x="-220" y="930" as="sourcePoint" />
            <mxPoint x="-170" y="880" as="targetPoint" />
          </mxGeometry>
        </mxCell>
        <mxCell id="m44uz_PLttphs2vmdU6A-40" value="" style="endArrow=classic;html=1;rounded=0;exitX=0.5;exitY=0;exitDx=0;exitDy=0;entryX=0;entryY=1;entryDx=0;entryDy=0;" edge="1" parent="1" source="m44uz_PLttphs2vmdU6A-27" target="m44uz_PLttphs2vmdU6A-33">
          <mxGeometry width="50" height="50" relative="1" as="geometry">
            <mxPoint x="-220" y="930" as="sourcePoint" />
            <mxPoint x="-170" y="880" as="targetPoint" />
          </mxGeometry>
        </mxCell>
        <mxCell id="m44uz_PLttphs2vmdU6A-41" value="" style="endArrow=classic;html=1;rounded=0;exitX=0.5;exitY=0;exitDx=0;exitDy=0;entryX=0;entryY=1;entryDx=0;entryDy=0;" edge="1" parent="1" source="m44uz_PLttphs2vmdU6A-27" target="m44uz_PLttphs2vmdU6A-34">
          <mxGeometry width="50" height="50" relative="1" as="geometry">
            <mxPoint x="-220" y="930" as="sourcePoint" />
            <mxPoint x="-170" y="880" as="targetPoint" />
          </mxGeometry>
        </mxCell>
        <mxCell id="m44uz_PLttphs2vmdU6A-43" value="1" style="text;html=1;align=center;verticalAlign=middle;resizable=0;points=[];autosize=1;strokeColor=none;fillColor=none;" vertex="1" parent="1">
          <mxGeometry x="405" y="568" width="30" height="30" as="geometry" />
        </mxCell>
        <mxCell id="m44uz_PLttphs2vmdU6A-44" value="0" style="text;html=1;align=center;verticalAlign=middle;resizable=0;points=[];autosize=1;strokeColor=none;fillColor=none;" vertex="1" parent="1">
          <mxGeometry x="405" y="878" width="30" height="30" as="geometry" />
        </mxCell>
        <mxCell id="m44uz_PLttphs2vmdU6A-63" style="edgeStyle=orthogonalEdgeStyle;rounded=0;orthogonalLoop=1;jettySize=auto;html=1;entryX=0.5;entryY=0;entryDx=0;entryDy=0;endArrow=none;endFill=0;" edge="1" parent="1" source="m44uz_PLttphs2vmdU6A-45" target="m44uz_PLttphs2vmdU6A-62">
          <mxGeometry relative="1" as="geometry" />
        </mxCell>
        <mxCell id="m44uz_PLttphs2vmdU6A-45" value="&lt;font style=&quot;font-size: 20px;&quot;&gt;Address&lt;/font&gt;" style="rounded=0;whiteSpace=wrap;html=1;" vertex="1" parent="1">
          <mxGeometry x="-625" y="580" width="120" height="60" as="geometry" />
        </mxCell>
        <mxCell id="m44uz_PLttphs2vmdU6A-46" value="&lt;span style=&quot;font-size: 14px;&quot;&gt;Long&lt;br&gt;addressId&lt;br&gt;&lt;/span&gt;" style="ellipse;whiteSpace=wrap;html=1;" vertex="1" parent="1">
          <mxGeometry x="-960" y="420" width="110" height="60" as="geometry" />
        </mxCell>
        <mxCell id="m44uz_PLttphs2vmdU6A-47" value="&lt;span style=&quot;font-size: 14px;&quot;&gt;String&lt;br&gt;houseNo&lt;br&gt;&lt;/span&gt;" style="ellipse;whiteSpace=wrap;html=1;" vertex="1" parent="1">
          <mxGeometry x="-880" y="370" width="110" height="60" as="geometry" />
        </mxCell>
        <mxCell id="m44uz_PLttphs2vmdU6A-48" value="&lt;font style=&quot;font-size: 14px;&quot;&gt;String&lt;br&gt;landmark&lt;/font&gt;" style="ellipse;whiteSpace=wrap;html=1;" vertex="1" parent="1">
          <mxGeometry x="-670" y="300" width="110" height="60" as="geometry" />
        </mxCell>
        <mxCell id="m44uz_PLttphs2vmdU6A-49" value="&lt;font style=&quot;font-size: 14px;&quot;&gt;String&lt;br&gt;buildingName&lt;br&gt;&lt;/font&gt;" style="ellipse;whiteSpace=wrap;html=1;" vertex="1" parent="1">
          <mxGeometry x="-780" y="330" width="110" height="60" as="geometry" />
        </mxCell>
        <mxCell id="m44uz_PLttphs2vmdU6A-50" value="&lt;font style=&quot;font-size: 14px;&quot;&gt;String&lt;br&gt;village&lt;br&gt;&lt;/font&gt;" style="ellipse;whiteSpace=wrap;html=1;" vertex="1" parent="1">
          <mxGeometry x="-560" y="310" width="110" height="60" as="geometry" />
        </mxCell>
        <mxCell id="m44uz_PLttphs2vmdU6A-51" value="&lt;font style=&quot;font-size: 16px;&quot;&gt;String&lt;br&gt;district&lt;br&gt;&lt;/font&gt;" style="ellipse;whiteSpace=wrap;html=1;" vertex="1" parent="1">
          <mxGeometry x="-450" y="330" width="130" height="80" as="geometry" />
        </mxCell>
        <mxCell id="m44uz_PLttphs2vmdU6A-52" value="&lt;span style=&quot;font-size: 16px;&quot;&gt;String&lt;br&gt;state&lt;br&gt;&lt;/span&gt;" style="ellipse;whiteSpace=wrap;html=1;" vertex="1" parent="1">
          <mxGeometry x="-330" y="380" width="110" height="60" as="geometry" />
        </mxCell>
        <mxCell id="m44uz_PLttphs2vmdU6A-53" value="" style="endArrow=classic;html=1;rounded=0;exitX=0.5;exitY=0;exitDx=0;exitDy=0;entryX=1;entryY=1;entryDx=0;entryDy=0;" edge="1" parent="1" source="m44uz_PLttphs2vmdU6A-45" target="m44uz_PLttphs2vmdU6A-46">
          <mxGeometry width="50" height="50" relative="1" as="geometry">
            <mxPoint x="-700" y="510" as="sourcePoint" />
            <mxPoint x="-650" y="460" as="targetPoint" />
          </mxGeometry>
        </mxCell>
        <mxCell id="m44uz_PLttphs2vmdU6A-54" value="" style="endArrow=classic;html=1;rounded=0;exitX=0.5;exitY=0;exitDx=0;exitDy=0;entryX=1;entryY=1;entryDx=0;entryDy=0;" edge="1" parent="1" source="m44uz_PLttphs2vmdU6A-45" target="m44uz_PLttphs2vmdU6A-47">
          <mxGeometry width="50" height="50" relative="1" as="geometry">
            <mxPoint x="-700" y="510" as="sourcePoint" />
            <mxPoint x="-650" y="460" as="targetPoint" />
          </mxGeometry>
        </mxCell>
        <mxCell id="m44uz_PLttphs2vmdU6A-55" value="" style="endArrow=classic;html=1;rounded=0;exitX=0.5;exitY=0;exitDx=0;exitDy=0;entryX=0.673;entryY=1.03;entryDx=0;entryDy=0;entryPerimeter=0;" edge="1" parent="1" source="m44uz_PLttphs2vmdU6A-45" target="m44uz_PLttphs2vmdU6A-49">
          <mxGeometry width="50" height="50" relative="1" as="geometry">
            <mxPoint x="-700" y="510" as="sourcePoint" />
            <mxPoint x="-650" y="460" as="targetPoint" />
          </mxGeometry>
        </mxCell>
        <mxCell id="m44uz_PLttphs2vmdU6A-56" value="" style="endArrow=classic;html=1;rounded=0;exitX=0.5;exitY=0;exitDx=0;exitDy=0;entryX=0.5;entryY=1;entryDx=0;entryDy=0;" edge="1" parent="1" source="m44uz_PLttphs2vmdU6A-45" target="m44uz_PLttphs2vmdU6A-48">
          <mxGeometry width="50" height="50" relative="1" as="geometry">
            <mxPoint x="-700" y="510" as="sourcePoint" />
            <mxPoint x="-650" y="460" as="targetPoint" />
          </mxGeometry>
        </mxCell>
        <mxCell id="m44uz_PLttphs2vmdU6A-57" value="" style="endArrow=classic;html=1;rounded=0;exitX=0.5;exitY=0;exitDx=0;exitDy=0;entryX=0.5;entryY=1;entryDx=0;entryDy=0;" edge="1" parent="1" source="m44uz_PLttphs2vmdU6A-45" target="m44uz_PLttphs2vmdU6A-50">
          <mxGeometry width="50" height="50" relative="1" as="geometry">
            <mxPoint x="-700" y="510" as="sourcePoint" />
            <mxPoint x="-650" y="460" as="targetPoint" />
          </mxGeometry>
        </mxCell>
        <mxCell id="m44uz_PLttphs2vmdU6A-58" value="" style="endArrow=classic;html=1;rounded=0;exitX=0.5;exitY=0;exitDx=0;exitDy=0;entryX=0;entryY=1;entryDx=0;entryDy=0;" edge="1" parent="1" source="m44uz_PLttphs2vmdU6A-45" target="m44uz_PLttphs2vmdU6A-51">
          <mxGeometry width="50" height="50" relative="1" as="geometry">
            <mxPoint x="-700" y="510" as="sourcePoint" />
            <mxPoint x="-650" y="460" as="targetPoint" />
          </mxGeometry>
        </mxCell>
        <mxCell id="m44uz_PLttphs2vmdU6A-59" value="" style="endArrow=classic;html=1;rounded=0;exitX=0.5;exitY=0;exitDx=0;exitDy=0;entryX=0;entryY=1;entryDx=0;entryDy=0;" edge="1" parent="1" source="m44uz_PLttphs2vmdU6A-45" target="m44uz_PLttphs2vmdU6A-52">
          <mxGeometry width="50" height="50" relative="1" as="geometry">
            <mxPoint x="-700" y="510" as="sourcePoint" />
            <mxPoint x="-650" y="460" as="targetPoint" />
          </mxGeometry>
        </mxCell>
        <mxCell id="m44uz_PLttphs2vmdU6A-60" value="&lt;span style=&quot;font-size: 16px;&quot;&gt;String&lt;br&gt;pincode&lt;br&gt;&lt;/span&gt;" style="ellipse;whiteSpace=wrap;html=1;" vertex="1" parent="1">
          <mxGeometry x="-290" y="440" width="110" height="60" as="geometry" />
        </mxCell>
        <mxCell id="m44uz_PLttphs2vmdU6A-61" value="" style="endArrow=classic;html=1;rounded=0;exitX=0.5;exitY=0;exitDx=0;exitDy=0;entryX=0.029;entryY=0.697;entryDx=0;entryDy=0;entryPerimeter=0;" edge="1" parent="1" source="m44uz_PLttphs2vmdU6A-45" target="m44uz_PLttphs2vmdU6A-60">
          <mxGeometry width="50" height="50" relative="1" as="geometry">
            <mxPoint x="-700" y="510" as="sourcePoint" />
            <mxPoint x="-650" y="460" as="targetPoint" />
          </mxGeometry>
        </mxCell>
        <mxCell id="m44uz_PLttphs2vmdU6A-64" style="edgeStyle=orthogonalEdgeStyle;rounded=0;orthogonalLoop=1;jettySize=auto;html=1;entryX=0;entryY=0.5;entryDx=0;entryDy=0;endArrow=none;endFill=0;" edge="1" parent="1" source="m44uz_PLttphs2vmdU6A-62" target="m44uz_PLttphs2vmdU6A-27">
          <mxGeometry relative="1" as="geometry" />
        </mxCell>
        <mxCell id="m44uz_PLttphs2vmdU6A-62" value="" style="rhombus;whiteSpace=wrap;html=1;" vertex="1" parent="1">
          <mxGeometry x="-605" y="990" width="80" height="80" as="geometry" />
        </mxCell>
        <mxCell id="m44uz_PLttphs2vmdU6A-65" value="1" style="text;html=1;align=center;verticalAlign=middle;resizable=0;points=[];autosize=1;strokeColor=none;fillColor=none;" vertex="1" parent="1">
          <mxGeometry x="-375" y="1028" width="30" height="30" as="geometry" />
        </mxCell>
        <mxCell id="m44uz_PLttphs2vmdU6A-66" value="1" style="text;html=1;align=center;verticalAlign=middle;resizable=0;points=[];autosize=1;strokeColor=none;fillColor=none;" vertex="1" parent="1">
          <mxGeometry x="-595" y="808" width="30" height="30" as="geometry" />
        </mxCell>
        <mxCell id="m44uz_PLttphs2vmdU6A-113" style="edgeStyle=orthogonalEdgeStyle;rounded=0;orthogonalLoop=1;jettySize=auto;html=1;entryX=0.5;entryY=0;entryDx=0;entryDy=0;" edge="1" parent="1" source="m44uz_PLttphs2vmdU6A-69" target="m44uz_PLttphs2vmdU6A-112">
          <mxGeometry relative="1" as="geometry" />
        </mxCell>
        <mxCell id="m44uz_PLttphs2vmdU6A-69" value="&lt;font style=&quot;font-size: 20px;&quot;&gt;Readings&lt;/font&gt;" style="rounded=0;whiteSpace=wrap;html=1;" vertex="1" parent="1">
          <mxGeometry x="365" y="1420" width="120" height="60" as="geometry" />
        </mxCell>
        <mxCell id="m44uz_PLttphs2vmdU6A-70" value="&lt;font style=&quot;font-size: 14px;&quot;&gt;String&lt;br&gt;readingId&lt;/font&gt;" style="ellipse;whiteSpace=wrap;html=1;" vertex="1" parent="1">
          <mxGeometry x="90" y="1270" width="110" height="60" as="geometry" />
        </mxCell>
        <mxCell id="m44uz_PLttphs2vmdU6A-71" value="&lt;span style=&quot;font-size: 14px;&quot;&gt;Integer&lt;br&gt;unitsConsumed&lt;br&gt;&lt;/span&gt;" style="ellipse;whiteSpace=wrap;html=1;" vertex="1" parent="1">
          <mxGeometry x="160" y="1210" width="110" height="60" as="geometry" />
        </mxCell>
        <mxCell id="m44uz_PLttphs2vmdU6A-72" value="&lt;font style=&quot;font-size: 14px;&quot;&gt;LocalDate&lt;br&gt;readingDate&lt;/font&gt;" style="ellipse;whiteSpace=wrap;html=1;" vertex="1" parent="1">
          <mxGeometry x="370" y="1140" width="110" height="60" as="geometry" />
        </mxCell>
        <mxCell id="m44uz_PLttphs2vmdU6A-73" value="&lt;font style=&quot;font-size: 14px;&quot;&gt;String&lt;br&gt;readingPhoto&lt;br&gt;&lt;/font&gt;" style="ellipse;whiteSpace=wrap;html=1;" vertex="1" parent="1">
          <mxGeometry x="260" y="1170" width="110" height="60" as="geometry" />
        </mxCell>
        <mxCell id="m44uz_PLttphs2vmdU6A-74" value="&lt;font style=&quot;font-size: 14px;&quot;&gt;Integer&lt;br&gt;pricePerUnit&lt;br&gt;&lt;/font&gt;" style="ellipse;whiteSpace=wrap;html=1;" vertex="1" parent="1">
          <mxGeometry x="480" y="1170" width="110" height="60" as="geometry" />
        </mxCell>
        <mxCell id="m44uz_PLttphs2vmdU6A-75" value="&lt;font style=&quot;font-size: 16px;&quot;&gt;Entity&lt;br&gt;Connection&lt;br&gt;&lt;/font&gt;" style="ellipse;whiteSpace=wrap;html=1;fillColor=#e1d5e7;strokeColor=#9673a6;" vertex="1" parent="1">
          <mxGeometry x="590" y="1200" width="130" height="80" as="geometry" />
        </mxCell>
        <mxCell id="m44uz_PLttphs2vmdU6A-77" value="" style="endArrow=classic;html=1;rounded=0;exitX=0.5;exitY=0;exitDx=0;exitDy=0;entryX=1;entryY=1;entryDx=0;entryDy=0;" edge="1" parent="1" source="m44uz_PLttphs2vmdU6A-69" target="m44uz_PLttphs2vmdU6A-70">
          <mxGeometry width="50" height="50" relative="1" as="geometry">
            <mxPoint x="290" y="1350" as="sourcePoint" />
            <mxPoint x="340" y="1300" as="targetPoint" />
          </mxGeometry>
        </mxCell>
        <mxCell id="m44uz_PLttphs2vmdU6A-78" value="" style="endArrow=classic;html=1;rounded=0;exitX=0.5;exitY=0;exitDx=0;exitDy=0;entryX=1;entryY=1;entryDx=0;entryDy=0;" edge="1" parent="1" source="m44uz_PLttphs2vmdU6A-69" target="m44uz_PLttphs2vmdU6A-71">
          <mxGeometry width="50" height="50" relative="1" as="geometry">
            <mxPoint x="290" y="1350" as="sourcePoint" />
            <mxPoint x="340" y="1300" as="targetPoint" />
          </mxGeometry>
        </mxCell>
        <mxCell id="m44uz_PLttphs2vmdU6A-79" value="" style="endArrow=classic;html=1;rounded=0;exitX=0.5;exitY=0;exitDx=0;exitDy=0;entryX=0.673;entryY=1.03;entryDx=0;entryDy=0;entryPerimeter=0;" edge="1" parent="1" source="m44uz_PLttphs2vmdU6A-69" target="m44uz_PLttphs2vmdU6A-73">
          <mxGeometry width="50" height="50" relative="1" as="geometry">
            <mxPoint x="290" y="1350" as="sourcePoint" />
            <mxPoint x="340" y="1300" as="targetPoint" />
          </mxGeometry>
        </mxCell>
        <mxCell id="m44uz_PLttphs2vmdU6A-80" value="" style="endArrow=classic;html=1;rounded=0;exitX=0.5;exitY=0;exitDx=0;exitDy=0;entryX=0.5;entryY=1;entryDx=0;entryDy=0;" edge="1" parent="1" source="m44uz_PLttphs2vmdU6A-69" target="m44uz_PLttphs2vmdU6A-72">
          <mxGeometry width="50" height="50" relative="1" as="geometry">
            <mxPoint x="290" y="1350" as="sourcePoint" />
            <mxPoint x="340" y="1300" as="targetPoint" />
          </mxGeometry>
        </mxCell>
        <mxCell id="m44uz_PLttphs2vmdU6A-81" value="" style="endArrow=classic;html=1;rounded=0;exitX=0.5;exitY=0;exitDx=0;exitDy=0;entryX=0.5;entryY=1;entryDx=0;entryDy=0;" edge="1" parent="1" source="m44uz_PLttphs2vmdU6A-69" target="m44uz_PLttphs2vmdU6A-74">
          <mxGeometry width="50" height="50" relative="1" as="geometry">
            <mxPoint x="290" y="1350" as="sourcePoint" />
            <mxPoint x="340" y="1300" as="targetPoint" />
          </mxGeometry>
        </mxCell>
        <mxCell id="m44uz_PLttphs2vmdU6A-82" value="" style="endArrow=classic;html=1;rounded=0;exitX=0.5;exitY=0;exitDx=0;exitDy=0;entryX=0;entryY=1;entryDx=0;entryDy=0;" edge="1" parent="1" source="m44uz_PLttphs2vmdU6A-69" target="m44uz_PLttphs2vmdU6A-75">
          <mxGeometry width="50" height="50" relative="1" as="geometry">
            <mxPoint x="290" y="1350" as="sourcePoint" />
            <mxPoint x="340" y="1300" as="targetPoint" />
          </mxGeometry>
        </mxCell>
        <mxCell id="m44uz_PLttphs2vmdU6A-86" style="edgeStyle=orthogonalEdgeStyle;rounded=0;orthogonalLoop=1;jettySize=auto;html=1;" edge="1" parent="1" source="m44uz_PLttphs2vmdU6A-84" target="m44uz_PLttphs2vmdU6A-69">
          <mxGeometry relative="1" as="geometry" />
        </mxCell>
        <mxCell id="m44uz_PLttphs2vmdU6A-84" value="" style="rhombus;whiteSpace=wrap;html=1;" vertex="1" parent="1">
          <mxGeometry x="-125" y="1410" width="80" height="80" as="geometry" />
        </mxCell>
        <mxCell id="m44uz_PLttphs2vmdU6A-87" value="1" style="text;html=1;align=center;verticalAlign=middle;resizable=0;points=[];autosize=1;strokeColor=none;fillColor=none;" vertex="1" parent="1">
          <mxGeometry x="-85" y="1218" width="30" height="30" as="geometry" />
        </mxCell>
        <mxCell id="m44uz_PLttphs2vmdU6A-88" value="n" style="text;html=1;align=center;verticalAlign=middle;resizable=0;points=[];autosize=1;strokeColor=none;fillColor=none;" vertex="1" parent="1">
          <mxGeometry x="105" y="1448" width="30" height="30" as="geometry" />
        </mxCell>
        <mxCell id="m44uz_PLttphs2vmdU6A-89" value="&lt;font style=&quot;font-size: 14px;&quot;&gt;Enum&lt;br&gt;ConnectionType&lt;br&gt;&lt;/font&gt;" style="ellipse;whiteSpace=wrap;html=1;" vertex="1" parent="1">
          <mxGeometry x="25" y="730" width="110" height="60" as="geometry" />
        </mxCell>
        <mxCell id="m44uz_PLttphs2vmdU6A-91" value="" style="endArrow=classic;html=1;rounded=0;exitX=0.5;exitY=0;exitDx=0;exitDy=0;entryX=0.5;entryY=1;entryDx=0;entryDy=0;" edge="1" parent="1" source="m44uz_PLttphs2vmdU6A-27" target="m44uz_PLttphs2vmdU6A-89">
          <mxGeometry width="50" height="50" relative="1" as="geometry">
            <mxPoint x="-220" y="930" as="sourcePoint" />
            <mxPoint x="-170" y="880" as="targetPoint" />
          </mxGeometry>
        </mxCell>
        <mxCell id="m44uz_PLttphs2vmdU6A-92" value="&lt;font style=&quot;font-size: 14px;&quot;&gt;String&lt;br&gt;HOME&lt;br&gt;&lt;/font&gt;" style="ellipse;whiteSpace=wrap;html=1;" vertex="1" parent="1">
          <mxGeometry x="-85" y="598" width="110" height="60" as="geometry" />
        </mxCell>
        <mxCell id="m44uz_PLttphs2vmdU6A-93" value="&lt;font style=&quot;font-size: 14px;&quot;&gt;String&lt;br&gt;INDUSTRIAL&lt;br&gt;&lt;/font&gt;" style="ellipse;whiteSpace=wrap;html=1;" vertex="1" parent="1">
          <mxGeometry x="20" y="560" width="110" height="60" as="geometry" />
        </mxCell>
        <mxCell id="m44uz_PLttphs2vmdU6A-94" value="&lt;font style=&quot;font-size: 14px;&quot;&gt;String&lt;br&gt;AGRICULTURAL&lt;br&gt;&lt;/font&gt;" style="ellipse;whiteSpace=wrap;html=1;" vertex="1" parent="1">
          <mxGeometry x="130" y="593" width="120" height="70" as="geometry" />
        </mxCell>
        <mxCell id="m44uz_PLttphs2vmdU6A-95" value="" style="endArrow=classic;html=1;rounded=0;exitX=0.5;exitY=0;exitDx=0;exitDy=0;entryX=1;entryY=1;entryDx=0;entryDy=0;" edge="1" parent="1" source="m44uz_PLttphs2vmdU6A-89" target="m44uz_PLttphs2vmdU6A-92">
          <mxGeometry width="50" height="50" relative="1" as="geometry">
            <mxPoint x="80" y="840" as="sourcePoint" />
            <mxPoint x="130" y="790" as="targetPoint" />
          </mxGeometry>
        </mxCell>
        <mxCell id="m44uz_PLttphs2vmdU6A-96" value="" style="endArrow=classic;html=1;rounded=0;exitX=0.5;exitY=0;exitDx=0;exitDy=0;entryX=0.5;entryY=1;entryDx=0;entryDy=0;" edge="1" parent="1" source="m44uz_PLttphs2vmdU6A-89" target="m44uz_PLttphs2vmdU6A-93">
          <mxGeometry width="50" height="50" relative="1" as="geometry">
            <mxPoint x="80" y="840" as="sourcePoint" />
            <mxPoint x="130" y="790" as="targetPoint" />
          </mxGeometry>
        </mxCell>
        <mxCell id="m44uz_PLttphs2vmdU6A-97" value="" style="endArrow=classic;html=1;rounded=0;exitX=0.5;exitY=0;exitDx=0;exitDy=0;entryX=0;entryY=1;entryDx=0;entryDy=0;" edge="1" parent="1" source="m44uz_PLttphs2vmdU6A-89" target="m44uz_PLttphs2vmdU6A-94">
          <mxGeometry width="50" height="50" relative="1" as="geometry">
            <mxPoint x="80" y="840" as="sourcePoint" />
            <mxPoint x="130" y="790" as="targetPoint" />
          </mxGeometry>
        </mxCell>
        <mxCell id="m44uz_PLttphs2vmdU6A-144" style="edgeStyle=orthogonalEdgeStyle;rounded=0;orthogonalLoop=1;jettySize=auto;html=1;entryX=1;entryY=0.5;entryDx=0;entryDy=0;" edge="1" parent="1" source="m44uz_PLttphs2vmdU6A-98" target="m44uz_PLttphs2vmdU6A-143">
          <mxGeometry relative="1" as="geometry" />
        </mxCell>
        <mxCell id="m44uz_PLttphs2vmdU6A-98" value="&lt;font style=&quot;font-size: 20px;&quot;&gt;Bill&lt;/font&gt;" style="rounded=0;whiteSpace=wrap;html=1;" vertex="1" parent="1">
          <mxGeometry x="-265" y="1810" width="120" height="60" as="geometry" />
        </mxCell>
        <mxCell id="m44uz_PLttphs2vmdU6A-99" value="&lt;font style=&quot;font-size: 14px;&quot;&gt;String&lt;br&gt;billId&lt;br&gt;&lt;/font&gt;" style="ellipse;whiteSpace=wrap;html=1;" vertex="1" parent="1">
          <mxGeometry x="-540" y="1660" width="110" height="60" as="geometry" />
        </mxCell>
        <mxCell id="m44uz_PLttphs2vmdU6A-100" value="&lt;span style=&quot;font-size: 14px;&quot;&gt;Integer&lt;br&gt;billDate&lt;br&gt;&lt;/span&gt;" style="ellipse;whiteSpace=wrap;html=1;" vertex="1" parent="1">
          <mxGeometry x="-470" y="1600" width="110" height="60" as="geometry" />
        </mxCell>
        <mxCell id="m44uz_PLttphs2vmdU6A-101" value="&lt;font style=&quot;font-size: 14px;&quot;&gt;LocalDate&lt;br&gt;unitsConsumed&lt;br&gt;&lt;/font&gt;" style="ellipse;whiteSpace=wrap;html=1;" vertex="1" parent="1">
          <mxGeometry x="-260" y="1530" width="110" height="60" as="geometry" />
        </mxCell>
        <mxCell id="m44uz_PLttphs2vmdU6A-102" value="&lt;font style=&quot;font-size: 14px;&quot;&gt;String&lt;br&gt;billDueDate&lt;br&gt;&lt;/font&gt;" style="ellipse;whiteSpace=wrap;html=1;" vertex="1" parent="1">
          <mxGeometry x="-370" y="1560" width="110" height="60" as="geometry" />
        </mxCell>
        <mxCell id="m44uz_PLttphs2vmdU6A-103" value="&lt;font style=&quot;font-size: 14px;&quot;&gt;Integer&lt;br&gt;billAmount&lt;br&gt;&lt;/font&gt;" style="ellipse;whiteSpace=wrap;html=1;" vertex="1" parent="1">
          <mxGeometry x="-150" y="1560" width="110" height="60" as="geometry" />
        </mxCell>
        <mxCell id="m44uz_PLttphs2vmdU6A-104" value="&lt;font style=&quot;font-size: 16px;&quot;&gt;Entity&lt;br&gt;Reading&lt;br&gt;&lt;/font&gt;" style="ellipse;whiteSpace=wrap;html=1;fillColor=#e1d5e7;strokeColor=#9673a6;" vertex="1" parent="1">
          <mxGeometry x="-40" y="1590" width="130" height="80" as="geometry" />
        </mxCell>
        <mxCell id="m44uz_PLttphs2vmdU6A-105" value="" style="endArrow=classic;html=1;rounded=0;exitX=0.5;exitY=0;exitDx=0;exitDy=0;entryX=1;entryY=1;entryDx=0;entryDy=0;" edge="1" parent="1" source="m44uz_PLttphs2vmdU6A-98" target="m44uz_PLttphs2vmdU6A-99">
          <mxGeometry width="50" height="50" relative="1" as="geometry">
            <mxPoint x="-340" y="1740" as="sourcePoint" />
            <mxPoint x="-290" y="1690" as="targetPoint" />
          </mxGeometry>
        </mxCell>
        <mxCell id="m44uz_PLttphs2vmdU6A-106" value="" style="endArrow=classic;html=1;rounded=0;exitX=0.5;exitY=0;exitDx=0;exitDy=0;entryX=1;entryY=1;entryDx=0;entryDy=0;" edge="1" parent="1" source="m44uz_PLttphs2vmdU6A-98" target="m44uz_PLttphs2vmdU6A-100">
          <mxGeometry width="50" height="50" relative="1" as="geometry">
            <mxPoint x="-340" y="1740" as="sourcePoint" />
            <mxPoint x="-290" y="1690" as="targetPoint" />
          </mxGeometry>
        </mxCell>
        <mxCell id="m44uz_PLttphs2vmdU6A-107" value="" style="endArrow=classic;html=1;rounded=0;exitX=0.5;exitY=0;exitDx=0;exitDy=0;entryX=0.673;entryY=1.03;entryDx=0;entryDy=0;entryPerimeter=0;" edge="1" parent="1" source="m44uz_PLttphs2vmdU6A-98" target="m44uz_PLttphs2vmdU6A-102">
          <mxGeometry width="50" height="50" relative="1" as="geometry">
            <mxPoint x="-340" y="1740" as="sourcePoint" />
            <mxPoint x="-290" y="1690" as="targetPoint" />
          </mxGeometry>
        </mxCell>
        <mxCell id="m44uz_PLttphs2vmdU6A-108" value="" style="endArrow=classic;html=1;rounded=0;exitX=0.5;exitY=0;exitDx=0;exitDy=0;entryX=0.5;entryY=1;entryDx=0;entryDy=0;" edge="1" parent="1" source="m44uz_PLttphs2vmdU6A-98" target="m44uz_PLttphs2vmdU6A-101">
          <mxGeometry width="50" height="50" relative="1" as="geometry">
            <mxPoint x="-340" y="1740" as="sourcePoint" />
            <mxPoint x="-290" y="1690" as="targetPoint" />
          </mxGeometry>
        </mxCell>
        <mxCell id="m44uz_PLttphs2vmdU6A-109" value="" style="endArrow=classic;html=1;rounded=0;exitX=0.5;exitY=0;exitDx=0;exitDy=0;entryX=0.5;entryY=1;entryDx=0;entryDy=0;" edge="1" parent="1" source="m44uz_PLttphs2vmdU6A-98" target="m44uz_PLttphs2vmdU6A-103">
          <mxGeometry width="50" height="50" relative="1" as="geometry">
            <mxPoint x="-340" y="1740" as="sourcePoint" />
            <mxPoint x="-290" y="1690" as="targetPoint" />
          </mxGeometry>
        </mxCell>
        <mxCell id="m44uz_PLttphs2vmdU6A-110" value="" style="endArrow=classic;html=1;rounded=0;exitX=0.5;exitY=0;exitDx=0;exitDy=0;entryX=0;entryY=1;entryDx=0;entryDy=0;" edge="1" parent="1" source="m44uz_PLttphs2vmdU6A-98" target="m44uz_PLttphs2vmdU6A-104">
          <mxGeometry width="50" height="50" relative="1" as="geometry">
            <mxPoint x="-340" y="1740" as="sourcePoint" />
            <mxPoint x="-290" y="1690" as="targetPoint" />
          </mxGeometry>
        </mxCell>
        <mxCell id="m44uz_PLttphs2vmdU6A-111" value="1" style="text;html=1;align=center;verticalAlign=middle;resizable=0;points=[];autosize=1;strokeColor=none;fillColor=none;" vertex="1" parent="1">
          <mxGeometry x="-525" y="1838" width="30" height="30" as="geometry" />
        </mxCell>
        <mxCell id="m44uz_PLttphs2vmdU6A-114" style="edgeStyle=orthogonalEdgeStyle;rounded=0;orthogonalLoop=1;jettySize=auto;html=1;" edge="1" parent="1" source="m44uz_PLttphs2vmdU6A-112" target="m44uz_PLttphs2vmdU6A-98">
          <mxGeometry relative="1" as="geometry" />
        </mxCell>
        <mxCell id="m44uz_PLttphs2vmdU6A-112" value="" style="rhombus;whiteSpace=wrap;html=1;" vertex="1" parent="1">
          <mxGeometry x="385" y="1800" width="80" height="80" as="geometry" />
        </mxCell>
        <mxCell id="m44uz_PLttphs2vmdU6A-115" value="1" style="text;html=1;align=center;verticalAlign=middle;resizable=0;points=[];autosize=1;strokeColor=none;fillColor=none;" vertex="1" parent="1">
          <mxGeometry x="425" y="1618" width="30" height="30" as="geometry" />
        </mxCell>
        <mxCell id="m44uz_PLttphs2vmdU6A-116" value="1" style="text;html=1;align=center;verticalAlign=middle;resizable=0;points=[];autosize=1;strokeColor=none;fillColor=none;" vertex="1" parent="1">
          <mxGeometry x="115" y="1838" width="30" height="30" as="geometry" />
        </mxCell>
        <mxCell id="m44uz_PLttphs2vmdU6A-118" value="&lt;font style=&quot;font-size: 20px;&quot;&gt;Payment&lt;/font&gt;" style="rounded=0;whiteSpace=wrap;html=1;" vertex="1" parent="1">
          <mxGeometry x="-885" y="1420" width="120" height="60" as="geometry" />
        </mxCell>
        <mxCell id="m44uz_PLttphs2vmdU6A-119" value="&lt;font style=&quot;font-size: 14px;&quot;&gt;String&lt;br&gt;paymentId&lt;/font&gt;" style="ellipse;whiteSpace=wrap;html=1;" vertex="1" parent="1">
          <mxGeometry x="-1260" y="1330" width="110" height="60" as="geometry" />
        </mxCell>
        <mxCell id="m44uz_PLttphs2vmdU6A-120" value="Enum&lt;br style=&quot;border-color: var(--border-color); font-size: 16px;&quot;&gt;&lt;span style=&quot;font-size: 16px;&quot;&gt;paymentMode&lt;/span&gt;" style="ellipse;whiteSpace=wrap;html=1;" vertex="1" parent="1">
          <mxGeometry x="-1170" y="1260" width="110" height="60" as="geometry" />
        </mxCell>
        <mxCell id="m44uz_PLttphs2vmdU6A-121" value="&lt;font style=&quot;font-size: 14px;&quot;&gt;Double&lt;br&gt;totalPaid&lt;br&gt;&lt;/font&gt;" style="ellipse;whiteSpace=wrap;html=1;" vertex="1" parent="1">
          <mxGeometry x="-880" y="1140" width="110" height="60" as="geometry" />
        </mxCell>
        <mxCell id="m44uz_PLttphs2vmdU6A-122" value="&lt;font style=&quot;font-size: 16px;&quot;&gt;Double&lt;br&gt;latePaymentCharges&lt;br&gt;&lt;/font&gt;" style="ellipse;whiteSpace=wrap;html=1;" vertex="1" parent="1">
          <mxGeometry x="-1070" y="1170" width="190" height="80" as="geometry" />
        </mxCell>
        <mxCell id="m44uz_PLttphs2vmdU6A-123" value="&lt;font style=&quot;font-size: 16px;&quot;&gt;Boolean&lt;br&gt;status&lt;br&gt;&lt;/font&gt;" style="ellipse;whiteSpace=wrap;html=1;" vertex="1" parent="1">
          <mxGeometry x="-770" y="1170" width="110" height="60" as="geometry" />
        </mxCell>
        <mxCell id="m44uz_PLttphs2vmdU6A-124" value="&lt;font style=&quot;font-size: 16px;&quot;&gt;LocalDate&lt;br&gt;paymentDate&lt;br&gt;&lt;/font&gt;" style="ellipse;whiteSpace=wrap;html=1;" vertex="1" parent="1">
          <mxGeometry x="-660" y="1200" width="130" height="80" as="geometry" />
        </mxCell>
        <mxCell id="m44uz_PLttphs2vmdU6A-125" value="&lt;span style=&quot;font-size: 16px;&quot;&gt;Entity&lt;br&gt;Bill&lt;br&gt;&lt;/span&gt;" style="ellipse;whiteSpace=wrap;html=1;fillColor=#dae8fc;strokeColor=#6c8ebf;" vertex="1" parent="1">
          <mxGeometry x="-570" y="1280" width="110" height="60" as="geometry" />
        </mxCell>
        <mxCell id="m44uz_PLttphs2vmdU6A-126" value="" style="endArrow=classic;html=1;rounded=0;exitX=0.5;exitY=0;exitDx=0;exitDy=0;entryX=1;entryY=1;entryDx=0;entryDy=0;" edge="1" parent="1" source="m44uz_PLttphs2vmdU6A-118" target="m44uz_PLttphs2vmdU6A-119">
          <mxGeometry width="50" height="50" relative="1" as="geometry">
            <mxPoint x="-960" y="1350" as="sourcePoint" />
            <mxPoint x="-910" y="1300" as="targetPoint" />
          </mxGeometry>
        </mxCell>
        <mxCell id="m44uz_PLttphs2vmdU6A-127" value="" style="endArrow=classic;html=1;rounded=0;exitX=0.5;exitY=0;exitDx=0;exitDy=0;entryX=1;entryY=1;entryDx=0;entryDy=0;" edge="1" parent="1" source="m44uz_PLttphs2vmdU6A-118" target="m44uz_PLttphs2vmdU6A-120">
          <mxGeometry width="50" height="50" relative="1" as="geometry">
            <mxPoint x="-960" y="1350" as="sourcePoint" />
            <mxPoint x="-910" y="1300" as="targetPoint" />
          </mxGeometry>
        </mxCell>
        <mxCell id="m44uz_PLttphs2vmdU6A-128" value="" style="endArrow=classic;html=1;rounded=0;exitX=0.5;exitY=0;exitDx=0;exitDy=0;entryX=0.673;entryY=1.03;entryDx=0;entryDy=0;entryPerimeter=0;" edge="1" parent="1" source="m44uz_PLttphs2vmdU6A-118" target="m44uz_PLttphs2vmdU6A-122">
          <mxGeometry width="50" height="50" relative="1" as="geometry">
            <mxPoint x="-960" y="1350" as="sourcePoint" />
            <mxPoint x="-910" y="1300" as="targetPoint" />
          </mxGeometry>
        </mxCell>
        <mxCell id="m44uz_PLttphs2vmdU6A-129" value="" style="endArrow=classic;html=1;rounded=0;exitX=0.5;exitY=0;exitDx=0;exitDy=0;entryX=0.5;entryY=1;entryDx=0;entryDy=0;" edge="1" parent="1" source="m44uz_PLttphs2vmdU6A-118" target="m44uz_PLttphs2vmdU6A-121">
          <mxGeometry width="50" height="50" relative="1" as="geometry">
            <mxPoint x="-960" y="1350" as="sourcePoint" />
            <mxPoint x="-910" y="1300" as="targetPoint" />
          </mxGeometry>
        </mxCell>
        <mxCell id="m44uz_PLttphs2vmdU6A-130" value="" style="endArrow=classic;html=1;rounded=0;exitX=0.5;exitY=0;exitDx=0;exitDy=0;entryX=0.5;entryY=1;entryDx=0;entryDy=0;" edge="1" parent="1" source="m44uz_PLttphs2vmdU6A-118" target="m44uz_PLttphs2vmdU6A-123">
          <mxGeometry width="50" height="50" relative="1" as="geometry">
            <mxPoint x="-960" y="1350" as="sourcePoint" />
            <mxPoint x="-910" y="1300" as="targetPoint" />
          </mxGeometry>
        </mxCell>
        <mxCell id="m44uz_PLttphs2vmdU6A-131" value="" style="endArrow=classic;html=1;rounded=0;exitX=0.5;exitY=0;exitDx=0;exitDy=0;entryX=0;entryY=1;entryDx=0;entryDy=0;" edge="1" parent="1" source="m44uz_PLttphs2vmdU6A-118" target="m44uz_PLttphs2vmdU6A-124">
          <mxGeometry width="50" height="50" relative="1" as="geometry">
            <mxPoint x="-960" y="1350" as="sourcePoint" />
            <mxPoint x="-910" y="1300" as="targetPoint" />
          </mxGeometry>
        </mxCell>
        <mxCell id="m44uz_PLttphs2vmdU6A-132" value="" style="endArrow=classic;html=1;rounded=0;exitX=0.5;exitY=0;exitDx=0;exitDy=0;entryX=0;entryY=1;entryDx=0;entryDy=0;" edge="1" parent="1" source="m44uz_PLttphs2vmdU6A-118" target="m44uz_PLttphs2vmdU6A-125">
          <mxGeometry width="50" height="50" relative="1" as="geometry">
            <mxPoint x="-960" y="1350" as="sourcePoint" />
            <mxPoint x="-910" y="1300" as="targetPoint" />
          </mxGeometry>
        </mxCell>
        <mxCell id="m44uz_PLttphs2vmdU6A-133" value="&lt;font style=&quot;font-size: 16px;&quot;&gt;String&lt;br&gt;DEBIT&lt;br&gt;&lt;/font&gt;" style="ellipse;whiteSpace=wrap;html=1;" vertex="1" parent="1">
          <mxGeometry x="-1370" y="1218" width="130" height="80" as="geometry" />
        </mxCell>
        <mxCell id="m44uz_PLttphs2vmdU6A-136" value="&lt;font style=&quot;font-size: 16px;&quot;&gt;String&lt;br&gt;CREDIT&lt;br&gt;&lt;/font&gt;" style="ellipse;whiteSpace=wrap;html=1;" vertex="1" parent="1">
          <mxGeometry x="-1360" y="1120" width="130" height="80" as="geometry" />
        </mxCell>
        <mxCell id="m44uz_PLttphs2vmdU6A-137" value="&lt;font style=&quot;font-size: 16px;&quot;&gt;String&lt;br&gt;WALLET&lt;br&gt;&lt;/font&gt;" style="ellipse;whiteSpace=wrap;html=1;" vertex="1" parent="1">
          <mxGeometry x="-1260" y="1030" width="130" height="80" as="geometry" />
        </mxCell>
        <mxCell id="m44uz_PLttphs2vmdU6A-138" value="&lt;font style=&quot;font-size: 16px;&quot;&gt;String&lt;br&gt;NET_BANKING&lt;br&gt;&lt;/font&gt;" style="ellipse;whiteSpace=wrap;html=1;" vertex="1" parent="1">
          <mxGeometry x="-1110" y="1003" width="130" height="80" as="geometry" />
        </mxCell>
        <mxCell id="m44uz_PLttphs2vmdU6A-139" value="" style="endArrow=classic;html=1;rounded=0;exitX=0;exitY=0;exitDx=0;exitDy=0;entryX=1;entryY=0.5;entryDx=0;entryDy=0;" edge="1" parent="1" source="m44uz_PLttphs2vmdU6A-120" target="m44uz_PLttphs2vmdU6A-133">
          <mxGeometry width="50" height="50" relative="1" as="geometry">
            <mxPoint x="-850" y="1230" as="sourcePoint" />
            <mxPoint x="-800" y="1180" as="targetPoint" />
          </mxGeometry>
        </mxCell>
        <mxCell id="m44uz_PLttphs2vmdU6A-140" value="" style="endArrow=classic;html=1;rounded=0;exitX=0;exitY=0;exitDx=0;exitDy=0;entryX=1;entryY=1;entryDx=0;entryDy=0;" edge="1" parent="1" source="m44uz_PLttphs2vmdU6A-120" target="m44uz_PLttphs2vmdU6A-136">
          <mxGeometry width="50" height="50" relative="1" as="geometry">
            <mxPoint x="-850" y="1230" as="sourcePoint" />
            <mxPoint x="-800" y="1180" as="targetPoint" />
          </mxGeometry>
        </mxCell>
        <mxCell id="m44uz_PLttphs2vmdU6A-141" value="" style="endArrow=classic;html=1;rounded=0;exitX=0;exitY=0;exitDx=0;exitDy=0;entryX=0.5;entryY=1;entryDx=0;entryDy=0;" edge="1" parent="1" source="m44uz_PLttphs2vmdU6A-120" target="m44uz_PLttphs2vmdU6A-137">
          <mxGeometry width="50" height="50" relative="1" as="geometry">
            <mxPoint x="-850" y="1230" as="sourcePoint" />
            <mxPoint x="-800" y="1180" as="targetPoint" />
          </mxGeometry>
        </mxCell>
        <mxCell id="m44uz_PLttphs2vmdU6A-142" value="" style="endArrow=classic;html=1;rounded=0;exitX=0;exitY=0;exitDx=0;exitDy=0;entryX=0.426;entryY=0.99;entryDx=0;entryDy=0;entryPerimeter=0;" edge="1" parent="1" source="m44uz_PLttphs2vmdU6A-120" target="m44uz_PLttphs2vmdU6A-138">
          <mxGeometry width="50" height="50" relative="1" as="geometry">
            <mxPoint x="-850" y="1230" as="sourcePoint" />
            <mxPoint x="-800" y="1180" as="targetPoint" />
          </mxGeometry>
        </mxCell>
        <mxCell id="m44uz_PLttphs2vmdU6A-145" style="edgeStyle=orthogonalEdgeStyle;rounded=0;orthogonalLoop=1;jettySize=auto;html=1;entryX=0.5;entryY=1;entryDx=0;entryDy=0;" edge="1" parent="1" source="m44uz_PLttphs2vmdU6A-143" target="m44uz_PLttphs2vmdU6A-118">
          <mxGeometry relative="1" as="geometry" />
        </mxCell>
        <mxCell id="m44uz_PLttphs2vmdU6A-143" value="" style="rhombus;whiteSpace=wrap;html=1;" vertex="1" parent="1">
          <mxGeometry x="-865" y="1800" width="80" height="80" as="geometry" />
        </mxCell>
        <mxCell id="m44uz_PLttphs2vmdU6A-146" value="1" style="text;html=1;align=center;verticalAlign=middle;resizable=0;points=[];autosize=1;strokeColor=none;fillColor=none;" vertex="1" parent="1">
          <mxGeometry x="-835" y="1638" width="30" height="30" as="geometry" />
        </mxCell>
      </root>
    </mxGraphModel>
  </diagram>
  <diagram id="SYhjgA-dUjy9QKU5KAwl" name="Page-2">
    <mxGraphModel dx="972" dy="541" grid="1" gridSize="10" guides="1" tooltips="1" connect="1" arrows="1" fold="1" page="1" pageScale="1" pageWidth="850" pageHeight="1100" math="0" shadow="0">
      <root>
        <mxCell id="0" />
        <mxCell id="1" parent="0" />
        <mxCell id="rXya-53EX1akSFZ0OcyK-1" value="&lt;div style=&quot;&quot;&gt;&lt;span style=&quot;font-size: 20px; background-color: initial;&quot;&gt;Customer&lt;/span&gt;&lt;/div&gt;&lt;div style=&quot;&quot;&gt;&lt;span style=&quot;font-size: 20px;&quot;&gt;&lt;br&gt;&lt;/span&gt;&lt;/div&gt;&lt;span style=&quot;font-size: 20px;&quot;&gt;1. registerCustomer (NORMAL, ADMIN)&lt;/span&gt;&lt;br&gt;&lt;span style=&quot;font-size: 20px;&quot;&gt;2. getCustomerById (ADMIN, CONSULTANT)&lt;/span&gt;&lt;br&gt;&lt;div style=&quot;&quot;&gt;&lt;span style=&quot;font-size: 20px; background-color: initial;&quot;&gt;3. getAllCustomers (Pagination and Sorting) (ADMIN)&lt;/span&gt;&lt;/div&gt;&lt;div style=&quot;&quot;&gt;&lt;span style=&quot;font-size: 20px; background-color: initial;&quot;&gt;4. updateDetails(NORMAL)&lt;/span&gt;&lt;/div&gt;&lt;div style=&quot;&quot;&gt;&lt;span style=&quot;font-size: 20px; background-color: initial;&quot;&gt;5. Delete Customer(ADMIN)&lt;/span&gt;&lt;/div&gt;&lt;div style=&quot;&quot;&gt;&lt;br&gt;&lt;/div&gt;" style="rounded=0;whiteSpace=wrap;html=1;align=left;" vertex="1" parent="1">
          <mxGeometry x="80" y="40" width="530" height="200" as="geometry" />
        </mxCell>
      </root>
    </mxGraphModel>
  </diagram>
  <diagram id="x-F1MmP9ijIkwFVi-mUz" name="Page-3">
    <mxGraphModel dx="972" dy="541" grid="1" gridSize="10" guides="1" tooltips="1" connect="1" arrows="1" fold="1" page="1" pageScale="1" pageWidth="850" pageHeight="1100" math="0" shadow="0">
      <root>
        <mxCell id="0" />
        <mxCell id="1" parent="0" />
        <mxCell id="G3VZCm1OsGGUGRHM7v0t-1" value="&lt;font style=&quot;font-size: 20px;&quot;&gt;Connection&lt;br&gt;&lt;br&gt;1. applyConnection&lt;br&gt;2. getConnectionDetails&lt;br&gt;3. getAllConnections(Pagination)&lt;br&gt;4. updateConnection&lt;br&gt;5. deleteConnection&lt;br&gt;6. deactivateConnection&lt;br&gt;7. getAllConnectionsByState&lt;br&gt;8. getAllConnectionsByPincode&lt;br&gt;9. getAllConnectionsByTaluka&lt;br&gt;10. getAllConnectionsByVillage&lt;br&gt;11. getAllActiveConnectionsByState&lt;br&gt;12. getAllInactiveConnectionsByState&lt;br&gt;13. getAllActiveConnectionsByPincode&lt;br&gt;14. getAllInactiveConnectionsByPincode&lt;br&gt;15. changeAddress&lt;br&gt;16. mailConnectionDetailsToCustomer&lt;br&gt;&lt;/font&gt;" style="rounded=0;whiteSpace=wrap;html=1;align=left;" vertex="1" parent="1">
          <mxGeometry x="80" y="80" width="600" height="470" as="geometry" />
        </mxCell>
        <mxCell id="1f7pbQuuuJNkS42MHZET-3" value="&lt;span style=&quot;font-size: 20px;&quot;&gt;User get mail when he/she apply for new connection&lt;br&gt;address change&lt;br&gt;&lt;/span&gt;" style="rounded=0;whiteSpace=wrap;html=1;align=left;" vertex="1" parent="1">
          <mxGeometry x="80" y="570" width="600" height="60" as="geometry" />
        </mxCell>
      </root>
    </mxGraphModel>
  </diagram>
  <diagram id="E1mTWjfHwOs34d3mnF1P" name="Page-4">
    <mxGraphModel dx="972" dy="541" grid="1" gridSize="10" guides="1" tooltips="1" connect="1" arrows="1" fold="1" page="1" pageScale="1" pageWidth="850" pageHeight="1100" math="0" shadow="0">
      <root>
        <mxCell id="0" />
        <mxCell id="1" parent="0" />
        <mxCell id="bCvH0M_RThofBTqKVF3K-1" value="&lt;font style=&quot;font-size: 20px;&quot;&gt;Reading&lt;br&gt;&lt;br&gt;1. generateReading(NORMAL)&lt;br&gt;2. uploadPhoto(NORMAL)&lt;br&gt;3. deleteReading(ADMIN, CONSULTANT)&lt;br&gt;4.getAllReadingByConnection(CONSULTANT)&lt;br&gt;5. getAllReadingByCustomer(CONSULTANT)&lt;br&gt;6. approveReading(ADMIN)&lt;br&gt;7. reportError(NORMAL)&lt;br&gt;&lt;/font&gt;" style="rounded=0;whiteSpace=wrap;html=1;align=left;" vertex="1" parent="1">
          <mxGeometry x="140" y="30" width="440" height="240" as="geometry" />
        </mxCell>
        <mxCell id="A702D8CtEpMinB-9gdn2-1" value="&lt;font style=&quot;font-size: 16px;&quot;&gt;User get mail when he/she publish their reading&lt;br&gt;and when their reading got approved&lt;br&gt;&lt;/font&gt;" style="whiteSpace=wrap;html=1;" vertex="1" parent="1">
          <mxGeometry x="140" y="300" width="400" height="90" as="geometry" />
        </mxCell>
      </root>
    </mxGraphModel>
  </diagram>
  <diagram id="X0ZsOGY0RMj8I8E1-CI3" name="Page-5">
    <mxGraphModel dx="972" dy="541" grid="1" gridSize="10" guides="1" tooltips="1" connect="1" arrows="1" fold="1" page="1" pageScale="1" pageWidth="850" pageHeight="1100" math="0" shadow="0">
      <root>
        <mxCell id="0" />
        <mxCell id="1" parent="0" />
        <mxCell id="ay2cTJK5anb6tXO0-HEM-1" value="&lt;font style=&quot;font-size: 20px;&quot;&gt;Bill&lt;br&gt;&lt;br&gt;1. generateBill(NORMAL, ADMIN)&lt;br&gt;2. deleteBill(CONSULTANT, ADMIN)&lt;br&gt;3. getAllBillForConnection(NORMAL, ADMIN)&lt;br&gt;4. getBillById(CONSULTANT)&lt;br&gt;&lt;/font&gt;" style="rounded=0;whiteSpace=wrap;html=1;align=left;" vertex="1" parent="1">
          <mxGeometry x="150" y="131" width="470" height="159" as="geometry" />
        </mxCell>
        <mxCell id="Zd_akLHWmd2rArzYZPRF-1" value="&lt;span style=&quot;font-size: 20px;&quot;&gt;Mail to user when their bill get generated&lt;/span&gt;" style="whiteSpace=wrap;html=1;align=left;" vertex="1" parent="1">
          <mxGeometry x="150" y="340" width="450" height="100" as="geometry" />
        </mxCell>
      </root>
    </mxGraphModel>
  </diagram>
  <diagram id="L1q-HYK1FQT8R1csgX-B" name="Page-6">
    <mxGraphModel dx="972" dy="541" grid="1" gridSize="10" guides="1" tooltips="1" connect="1" arrows="1" fold="1" page="1" pageScale="1" pageWidth="850" pageHeight="1100" math="0" shadow="0">
      <root>
        <mxCell id="0" />
        <mxCell id="1" parent="0" />
        <mxCell id="stJ9RfQQH_7_TV_MLLDa-1" value="&lt;ul style=&quot;font-size: 20px;&quot;&gt;&lt;li&gt;User get mail when he/she register so that they can confirm their identity&lt;/li&gt;&lt;li&gt;If user&#39;s reading get rejected for 4 times in a row then thier connection will be deactivate&lt;/li&gt;&lt;/ul&gt;" style="rounded=0;whiteSpace=wrap;html=1;align=left;" vertex="1" parent="1">
          <mxGeometry x="160" y="120" width="530" height="310" as="geometry" />
        </mxCell>
      </root>
    </mxGraphModel>
  </diagram>
  <diagram id="qNLxyi3Qyr-s9DrnXy6L" name="Page-7">
    <mxGraphModel dx="972" dy="541" grid="1" gridSize="10" guides="1" tooltips="1" connect="1" arrows="1" fold="1" page="1" pageScale="1" pageWidth="850" pageHeight="1100" math="0" shadow="0">
      <root>
        <mxCell id="0" />
        <mxCell id="1" parent="0" />
        <mxCell id="r3JwIfKwMVGoS9_JKx0x-1" value="&lt;ul style=&quot;font-size: 20px;&quot;&gt;&lt;li&gt;JWT Authentication&lt;/li&gt;&lt;li&gt;Email Service&lt;/li&gt;&lt;li&gt;Swagger Implementation&lt;/li&gt;&lt;li&gt;Role based authentication will be used&lt;/li&gt;&lt;li&gt;MySql Database&lt;/li&gt;&lt;li&gt;Postman&lt;/li&gt;&lt;li&gt;AWS Database Hosting&lt;/li&gt;&lt;/ul&gt;" style="whiteSpace=wrap;html=1;align=left;" vertex="1" parent="1">
          <mxGeometry x="200" y="260" width="520" height="240" as="geometry" />
        </mxCell>
      </root>
    </mxGraphModel>
  </diagram>
</mxfile>
